{"title":"Avengers Assemble S2E09 The Dark Avengers HDTV Pimp4003","uid":11675925,"size":60129453,"categoryP":"video","categoryS":"tv_shows","magnet":"?xt=urn:btih:945063079023560759be1537a6426e2e76a43089&amp;dn=Avengers+Assemble+S2E09+The+Dark+Avengers+HDTV+Pimp4003&amp;tr=udp%3A%2F%2Ftracker.openbittorrent.com%3A80&amp;tr=udp%3A%2F%2Fopen.demonii.com%3A1337&amp;tr=udp%3A%2F%2Ftracker.coppersurfer.tk%3A6969&amp;tr=udp%3A%2F%2Fexodus.desync.com%3A6969","seeders":7,"leechers":0,"uploader":"shawnmurthy","files":1,"time":1422875549,"description":" &lt;a href=&quot;http://i.imgur.com/SpsuXOR.png&quot; rel=&quot;nofollow&quot; target=&quot;_NEW&quot;&gt;http://i.imgur.com/SpsuXOR.png&lt;/a&gt;\n\n[u][b][color=green]PIMP THE ONE AND ONLY PIMPSTER.....PRESENTS[/color][/b][/u]\n\nAvengers Assemble S2E09 The Dark Avengers HDTV Pimp4003\n &lt;a href=&quot;\nhttp://www.imdb.com/title/tt2455546&quot; rel=&quot;nofollow&quot; target=&quot;_NEW&quot;&gt;\nhttp://www.imdb.com/title/tt2455546&lt;/a&gt;\n\nThe further adventures of the Marvel Universe's mightiest general membership superhero team.\n\nStars: Adrian Pasdar, Fred Tatasciore, Roger Craig Smith |See full cast and crew Â»\n\nVideo\nID                                       : 201\nFormat                                   : AVC\nFormat/Info                              : Advanced Video Codec\nFormat profile                           : &lt;a class=&quot;__cf_email__&quot; href=&quot;/cdn-cgi/l/email-protection&quot; data-cfemail=&quot;1c54757b745c502f322c&quot;&gt;[email&amp;#160;protected]&lt;/a&gt;&lt;script cf-hash='f9e31' type=&quot;text/javascript&quot;&gt;\n/* &lt;![CDATA[ */!function(){try{var t=&quot;currentScript&quot;in document?document.currentScript:function(){for(var t=document.getElementsByTagName(&quot;script&quot;),e=t.length;e--;)if(t[e].getAttribute(&quot;cf-hash&quot;))return t[e]}();if(t&amp;&amp;t.previousSibling){var e,r,n,i,c=t.previousSibling,a=c.getAttribute(&quot;data-cfemail&quot;);if(a){for(e=&quot;&quot;,r=parseInt(a.substr(0,2),16),n=2;a.length-n;n+=2)i=parseInt(a.substr(n,2),16)^r,e+=String.fromCharCode(i);e=document.createTextNode(e),c.parentNode.replaceChild(e,c)}}}catch(u){}}();/* ]]&gt; */&lt;/script&gt;\nFormat settings, CABAC                   : Yes\nFormat settings, ReFrames                : 4 frames\nCodec ID                                 : avc1\nCodec ID/Info                            : Advanced Video Coding\nDuration                                 : 21mn 44s\nSource duration                          : 21mn 44s\nBit rate                                 : 301 Kbps\nMaximum bit rate                         : 1 211 Kbps\nWidth                                    : 640 pixels\nHeight                                   : 356 pixels\nDisplay aspect ratio                     : 16:9\nOriginal display aspect ratio            : 16:9\nFrame rate mode                          : Constant\nFrame rate                               : 22.500 fps\nColor space                              : YUV\nChroma subsampling                       : 4:2:0\nBit depth                                : 8 bits\nScan type                                : Progressive\nBits/(Pixel*Frame)                       : 0.059\nStream size                              : 46.8 MiB (82%)\nSource stream size                       : 46.8 MiB (82%)\nWriting library                          : x264 core 132\nEncoding settings                        : cabac=1 / ref=1 / deblock=1:0:0 / analyse=0x3:0x113 / me=hex / subme=2 / psy=1 / psy_rd=1.00:0.00 / mixed_ref=0 / me_range=16 / chroma_me=1 / trellis=0 / 8x8dct=1 / cqm=0 / deadzone=21,11 / fast_pskip=1 / chroma_qp_offset=0 / threads=24 / lookahead_threads=2 / sliced_threads=0 / nr=0 / decimate=1 / interlaced=0 / bluray_compat=0 / constrained_intra=0 / bframes=3 / b_pyramid=2 / b_adapt=1 / b_bias=0 / direct=1 / weightb=1 / open_gop=0 / weightp=1 / keyint=60 / keyint_min=6 / scenecut=40 / intra_refresh=0 / rc_lookahead=10 / rc=crf / mbtree=1 / crf=25.0 / qcomp=0.60 / qpmin=0 / qpmax=69 / qpstep=4 / ip_ratio=1.40 / aq=1:1.00\nTagged date                              : UTC 2015-02-01 18:31:42\n\nAudio\nID                                       : 101\nFormat                                   : AAC\nFormat/Info                              : Advanced Audio Codec\nFormat profile                           : LC\nCodec ID                                 : 40\nDuration                                 : 21mn 43s\nBit rate mode                            : Variable\nBit rate                                 : 64.2 Kbps\nMaximum bit rate                         : 101 Kbps\nChannel(s)                               : 2 channels\nChannel positions                        : Front: L R\nSampling rate                            : 48.0 KHz\nCompression mode                         : Lossy\nStream size                              : 9.97 MiB (17%)\nLanguage                                 : English\nEncoded date                             : UTC 2015-02-01 18:31:42\nTagged date                              : UTC 2015-02-01 18:31:42\n &lt;a href=&quot;\nhttp://i.imgur.com/BuM98dG.png&quot; rel=&quot;nofollow&quot; target=&quot;_NEW&quot;&gt;\nhttp://i.imgur.com/BuM98dG.png&lt;/a&gt; &lt;a href=&quot;\nhttp://i.imgur.com/Z55li20.png&quot; rel=&quot;nofollow&quot; target=&quot;_NEW&quot;&gt;\nhttp://i.imgur.com/Z55li20.png&lt;/a&gt; &lt;a href=&quot;\nhttp://i.imgur.com/ABi2sPq.png&quot; rel=&quot;nofollow&quot; target=&quot;_NEW&quot;&gt;\nhttp://i.imgur.com/ABi2sPq.png&lt;/a&gt;","torrent":{"xt":"urn:btih:945063079023560759be1537a6426e2e76a43089","amp;dn":"Avengers+Assemble+S2E09+The+Dark+Avengers+HDTV+Pimp4003","amp;tr":["udp%3A%2F%2Ftracker.openbittorrent.com%3A80","udp%3A%2F%2Fopen.demonii.com%3A1337","udp%3A%2F%2Ftracker.coppersurfer.tk%3A6969","udp%3A%2F%2Fexodus.desync.com%3A6969"],"infoHash":"945063079023560759be1537a6426e2e76a43089","infoHashBuffer":{"type":"Buffer","data":[148,80,99,7,144,35,86,7,89,190,21,55,166,66,110,46,118,164,48,137]},"announce":[],"urlList":[]}}